<mxfile host="app.diagrams.net" modified="2023-07-06T17:29:49.829Z" agent="Mozilla/5.0 (Windows NT 10.0; Win64; x64) AppleWebKit/537.36 (KHTML, like Gecko) Chrome/114.0.0.0 Safari/537.36" version="21.6.1" etag="VVIokm9HOd_sZpQ8vak3" type="github">
  <diagram name="Halaman-1" id="Duaf8t8ROUxW44v96eA_">
    <mxGraphModel>
      <root>
        <mxCell id="0" />
        <mxCell id="1" parent="0" />
      </root>
    </mxGraphModel>
  </diagram>
</mxfile>
